<?xml version="1.0" encoding="UTF-8"?><svg id="FInal" xmlns="http://www.w3.org/2000/svg" viewBox="0 0 24 24"><defs><style>.cls-1{fill:#032730;}</style></defs><path class="cls-1" d="M18.09,10.46v-1.96c0-.44-.21-.66-.66-.66h-.83v3.34h.77c.49,0,.72-.25,.72-.72Z"/><polygon class="cls-1" points="10.28 14.39 11.7 14.39 10.98 8.6 10.28 14.39"/><path class="cls-1" d="M17.4,12.67h-.8v3.55h.87c.44,0,.65-.21,.65-.66v-2.18c0-.49-.23-.72-.72-.72Z"/><path class="cls-1" d="M22.7,3.9L13.38,.23c-.76-.3-2.01-.3-2.77,0L1.29,3.9C.53,4.2-.05,5.11,0,5.93l.82,13.08c.05,.82,.73,1.7,1.5,1.97l8.26,2.82c.77,.26,2.04,.27,2.82,0l8.29-2.83c.77-.26,1.45-1.15,1.5-1.97l.8-13.08c.05-.82-.53-1.73-1.29-2.03ZM7.34,15.63c0,1.42-.71,2.13-2.13,2.13h-1.07v-1.59h.77c.46,0,.67-.21,.67-.67V6.3h1.75V15.63Zm4.79,2.12l-.23-1.8h-1.81l-.22,1.8h-1.62l1.64-11.48h2.33l1.65,11.48h-1.74Zm7.73-2.12c0,1.42-.71,2.13-2.13,2.13h-2.87V6.3h2.83c1.42,0,2.13,.7,2.13,2.13v1.69c0,1.01-.35,1.52-.97,1.75,.67,.23,1,.72,1,1.65v2.11Z"/></svg>